<?xml version="1.0" encoding="UTF-8" standalone="no" ?>
<svg xmlns="http://www.w3.org/2000/svg" width="15.143ex" height="2.149ex" viewBox="0 -750 6693.3 950" xmlns:xlink="http://www.w3.org/1999/xlink" aria-hidden="true" style=""><defs></defs><g stroke="currentColor" fill="currentColor" stroke-width="0" transform="matrix(1 0 0 -1 0 0)"><g data-mml-node="math"><g data-mml-node="mo"><text data-variant="normal" transform="matrix(1 0 0 -1 0 0)" font-size="884px" font-family="serif">下</text><text data-variant="normal" transform="translate(836.4, 0) matrix(1 0 0 -1 0 0)" font-size="884px" font-family="serif">岗</text><text data-variant="normal" transform="translate(1672.8, 0) matrix(1 0 0 -1 0 0)" font-size="884px" font-family="serif">机</text><text data-variant="normal" transform="translate(2509.7, 0) matrix(1 0 0 -1 0 0)" font-size="884px" font-family="serif">器</text><text data-variant="normal" transform="translate(3346.6, 0) matrix(1 0 0 -1 0 0)" font-size="884px" font-family="serif">人</text><text data-variant="normal" transform="translate(4183.6, 0) matrix(1 0 0 -1 0 0)" font-size="884px" font-family="serif">再</text><text data-variant="normal" transform="translate(5020, 0) matrix(1 0 0 -1 0 0)" font-size="884px" font-family="serif">就</text><text data-variant="normal" transform="translate(5856.9, 0) matrix(1 0 0 -1 0 0)" font-size="884px" font-family="serif">业</text></g></g></g></svg>